# xmcd
# 
# Track frame offsets:
#	150
#	13556
#	25397
#	40189
#	53803
#	68142
#	79382
#	95549
#	110188
#	124766
#
# Disc length: 1815 seconds
#
# Revision: 1
# Processed by: cddbd v1.4PL0 Copyright (c) Steve Scherf et al.
# Submitted via: Audio-CD-Archiv 2.10.438
#
DISCID=8507150a
DTITLE=Nat King Cole - Stay As Sweet As You Are
DYEAR=1900
DGENRE=blues
TTITLE0=Stay As Sweet As You Are
TTITLE1=You Stepped Out Of A Dream
TTITLE2=Angel Eyes
TTITLE3=If I Give my heart To You
TTITLE4=On The Street Where You Live
TTITLE5=Get me To The Church On Time
TTITLE6=What Is There To say
TTITLE7=Don't Get Around Much Any More
TTITLE8=Paradise
TTITLE9=When Your Lover Has Gone
EXTD=
EXTT0=
EXTT1=
EXTT2=
EXTT3=
EXTT4=
EXTT5=
EXTT6=
EXTT7=
EXTT8=
EXTT9=
PLAYORDER=
